<?xml version="1.0" encoding="utf-8"?>
<svg
	version="1.1"
	id="Layer_1"
	xmlns="http://www.w3.org/2000/svg"
	xmlns:xlink="http://www.w3.org/1999/xlink"
	x="0px"
	y="0px"
	viewBox="0 0 360 360"
	style="enable-background:new 0 0 360 360;"
	xml:space="preserve">
	<path d="M360,24.11H48.09l14.18,24.56l9.87,17.09l14.18,24.56l79.5,137.69l-9.87,17.09L66.59,90.33L52.4,65.76l-9.87-17.09 L28.36,24.11H0l14.18,24.56l9.87,17.09l14.18,24.56l103.55,179.34l14.18,24.57l14.18-24.56l9.87-17.09l14.18-24.56l79.5-137.7h19.73 l-89.36,154.79l-14.18,24.56l-9.87,17.09l-14.18,24.56L180,335.89l14.18-24.56l9.87-17.09l14.18-24.56L321.77,90.33l14.18-24.56 H100.5l-9.87-17.09h255.19L360,24.11z M245.31,90.33l-65.32,113.14L114.67,90.33H245.31z"/>
</svg>